<svg width="20" height="21" viewBox="0 0 20 21" fill="none" xmlns="http://www.w3.org/2000/svg">
<path d="M10 0.100098C4.5 0.100098 0 4.6001 0 10.1001C0 15.6001 4.5 20.1001 10 20.1001C15.5 20.1001 20 15.6001 20 10.1001C20 4.6001 15.5 0.100098 10 0.100098ZM10 18.7668C5.2222 18.7668 1.33334 14.8779 1.33334 10.1001C1.33334 5.3223 5.2222 1.43343 10 1.43343C14.7778 1.43343 18.6667 5.3223 18.6667 10.1001C18.6667 14.8779 14.7778 18.7668 10 18.7668Z" fill="#404040"/>
<path d="M14.2221 5.87778C13.9443 5.59998 13.5554 5.59998 13.2777 5.87778L9.99989 9.15553L6.72214 5.87778C6.44434 5.59998 6.05544 5.59998 5.77769 5.87778C5.49989 6.15553 5.49989 6.54443 5.77769 6.82218L9.05544 10.1L5.77769 13.3778C5.49989 13.6555 5.49989 14.0444 5.77769 14.3222C5.88879 14.4333 6.05544 14.5444 6.22214 14.5444C6.38879 14.5444 6.55544 14.4889 6.66659 14.3222L9.94434 11.0444L13.2221 14.3222C13.3332 14.4333 13.4999 14.5444 13.6666 14.5444C13.8332 14.5444 13.9999 14.4889 14.111 14.3222C14.3888 14.0444 14.3888 13.6555 14.111 13.3778L10.9443 10.1L14.2221 6.82218C14.4999 6.54443 14.4999 6.15553 14.2221 5.87778Z" fill="#404040"/>
</svg>
