<svg width="16" height="16" viewBox="0 0 16 16" fill="none" xmlns="http://www.w3.org/2000/svg">
<path d="M9.06459 7.99219L15.7652 1.29814C16.0783 0.985339 16.0783 0.54741 15.7652 0.234602C15.4521 -0.0782007 15.0137 -0.0782007 14.7006 0.234602L8 6.92864L1.29941 0.234602C0.986298 -0.0782007 0.547946 -0.0782007 0.234832 0.234602C-0.0782772 0.54741 -0.0782772 0.985339 0.234832 1.29814L6.93541 7.99219L0.234832 14.6862C-0.0782772 14.999 -0.0782772 15.437 0.234832 15.7498C0.360075 15.8749 0.547946 16 0.735811 16C0.923676 16 1.11155 15.9374 1.23679 15.7498L8 9.05573L14.7006 15.7498C14.8258 15.8749 15.0137 16 15.2016 16C15.3894 16 15.5773 15.9374 15.7026 15.7498C16.0157 15.437 16.0157 14.999 15.7026 14.6862L9.06459 7.99219Z" fill="#404040"/>
</svg>
