<svg width="28" height="28" viewBox="0 0 28 28" fill="none" xmlns="http://www.w3.org/2000/svg">
<path d="M21.3712 4.00002H10.2581C9.44065 4.00002 8.77796 4.6627 8.77796 5.48014V7.70032H6.55777C5.73693 7.70032 5.07153 8.36574 5.07153 9.18653V22.5198C5.07153 22.5198 5.07153 22.5198 5.07153 22.5199C5.07153 23.3373 5.73421 24 6.55165 24C6.5538 24 6.55596 24 6.5581 23.9999H17.6709C18.4883 23.9999 19.151 23.3373 19.151 22.5198V20.2996H21.3712C22.192 20.2996 22.8574 19.6343 22.8574 18.8134V5.48014C22.8574 5.48014 22.8574 5.48014 22.8574 5.48012C22.8574 4.66268 22.1947 4 21.3773 4C21.3752 4 21.373 4 21.3708 4.00002H21.3712ZM17.6709 18.8134V21.9082C17.6709 22.246 17.3971 22.5198 17.0593 22.5198H7.16939C6.83161 22.5198 6.55777 22.246 6.55777 21.9082V9.79815C6.55777 9.46041 6.83161 9.18653 7.16939 9.18653H17.0593C17.3971 9.18653 17.6709 9.46041 17.6709 9.79815V18.8134ZM21.3712 18.2018C21.3712 18.5396 21.0974 18.8134 20.7596 18.8134H19.151V9.18653C19.151 8.36782 18.4891 7.70379 17.6712 7.70032H10.2581V6.09176C10.2581 5.75399 10.5319 5.48014 10.8697 5.48014H20.7596C21.0974 5.48014 21.3712 5.75399 21.3712 6.09176V18.2018Z" fill="#0046C0"/>
</svg>
