<svg width="21" height="20" viewBox="0 0 21 20" fill="none" xmlns="http://www.w3.org/2000/svg">
<path d="M18.9132 2.22534H2.58674C1.56633 2.22534 0.75 3.02281 0.75 4.01964V15.9816C0.75 16.9785 1.56633 17.7759 2.58674 17.7759H18.9132C19.9337 17.7759 20.75 16.9785 20.75 15.9816V4.01964C20.75 3.02281 19.9337 2.22534 18.9132 2.22534ZM19.1173 4.04798C19.1173 4.09233 19.094 4.13352 19.0555 4.15686L10.8289 9.15521C10.7806 9.18462 10.7194 9.18462 10.6711 9.15521L2.44443 4.15686C2.40602 4.13352 2.38266 4.09233 2.38266 4.04798C2.38266 3.97727 2.44102 3.91996 2.51301 3.91996H18.987C19.059 3.91996 19.1173 3.97727 19.1173 4.04798ZM18.7092 16.181H2.79082C2.58674 16.181 2.38266 15.9816 2.38266 15.7823V5.51489L10.67 10.6489C10.7189 10.6792 10.7811 10.6792 10.83 10.6489L19.1173 5.51489V15.7823C19.1173 16.0813 19.0153 16.181 18.7092 16.181Z" fill="#0046C0"/>
</svg>
