<svg width="16" height="17" viewBox="0 0 16 17" fill="none" xmlns="http://www.w3.org/2000/svg">
<path d="M8.66668 10.989V6.18896H6.88892V7.47789H7.33336V10.989H6.88892V12.2779H9.11112V10.989H8.66668Z" fill="#0046C0"/>
<path d="M8.00003 5.21122C8.58911 5.21122 9.06667 4.73366 9.06667 4.14454C9.06667 3.55544 8.58911 3.07788 8.00003 3.07788C7.41091 3.07788 6.93335 3.55544 6.93335 4.14454C6.93335 4.73366 7.41091 5.21122 8.00003 5.21122Z" fill="#0046C0"/>
<path d="M8 0.100098C3.6 0.100098 0 3.7001 0 8.1001C0 12.5001 3.6 16.1001 8 16.1001C12.4 16.1001 16 12.5001 16 8.1001C16 3.7001 12.4 0.100098 8 0.100098ZM8 15.0334C4.17776 15.0334 1.06667 11.9223 1.06667 8.1001C1.06667 4.27786 4.17776 1.16677 8 1.16677C11.8222 1.16677 14.9333 4.27786 14.9333 8.1001C14.9333 11.9223 11.8222 15.0334 8 15.0334Z" fill="#0046C0"/>
</svg>
