<svg width="20" height="20" viewBox="0 0 20 20" fill="none" xmlns="http://www.w3.org/2000/svg">
<path fill-rule="evenodd" clip-rule="evenodd" d="M9.30408 2.54599C9.30408 2.54598 9.30408 2.54599 9.30408 2.54599L1.18251 16.6437C0.87035 17.1856 1.26241 17.857 1.87844 17.857H18.1217C18.7377 17.857 19.1297 17.1856 18.8176 16.6437L10.696 2.54599C10.3862 2.0083 9.61386 2.0083 9.30408 2.54599ZM8.37572 2.01113C9.09765 0.758009 10.9024 0.75801 11.6244 2.01113L19.7459 16.1089C20.4682 17.3625 19.5649 18.9284 18.1217 18.9284H1.87844C0.435172 18.9284 -0.468078 17.3625 0.254123 16.1089L8.37572 2.01113Z" fill="#97453C"/>
<path fill-rule="evenodd" clip-rule="evenodd" d="M9.89265 6.42822C10.1932 6.42822 10.4938 6.67869 10.4938 6.97926V12.6899C10.4938 12.9904 10.2433 13.2409 9.89265 13.2409C9.59208 13.2409 9.2915 12.9904 9.2915 12.6899V6.97926C9.2915 6.67869 9.54197 6.42822 9.89265 6.42822Z" fill="#97453C"/>
<path fill-rule="evenodd" clip-rule="evenodd" d="M9.89226 15.3448C10.2429 15.3448 10.4934 15.0443 10.4934 14.7437C10.4934 14.393 10.1928 14.1426 9.89226 14.1426C9.54162 14.1426 9.29112 14.4431 9.29112 14.7437C9.24105 15.0443 9.54162 15.3448 9.89226 15.3448Z" fill="black"/>
</svg>
