<svg width="36" height="37" viewBox="0 0 36 37" fill="none" xmlns="http://www.w3.org/2000/svg">
<path fill-rule="evenodd" clip-rule="evenodd" d="M0.887775 18.0025C0.887192 8.5509 8.54842 0.888672 17.9994 0.888672C27.4503 0.888672 35.1125 8.5509 35.1131 18.0025C35.1131 18.84 34.4343 19.5189 33.5969 19.5189C32.7594 19.5189 32.0805 18.84 32.0805 18.0025C32.08 10.2259 25.7756 3.9215 17.9996 3.9215C10.2235 3.9215 3.91992 10.2259 3.9204 18.0025C3.92088 25.7791 10.2252 32.0835 18.0013 32.0835C18.7036 32.0835 19.3929 32.0322 20.0662 31.9332C20.8947 31.8115 21.6651 32.3845 21.7869 33.2131C21.9087 34.0417 21.3357 34.8121 20.5072 34.9338C19.6884 35.0541 18.8519 35.1163 18.0015 35.1163C8.55054 35.1163 0.888359 27.4541 0.887775 18.0025Z" fill="#0046C0"/>
</svg>
