<svg width="64" height="65" viewBox="0 0 64 65" fill="none" xmlns="http://www.w3.org/2000/svg">
<path d="M46.6127 43.5683L47.3526 42.8284C51.052 38.2041 52.9017 32.47 52.9017 26.551C52.9017 19.5221 50.1272 12.8631 45.1329 7.86889C40.1387 2.87467 33.6647 0.100098 26.4509 0.100098C11.8382 0.100098 0 12.1232 0 26.551C0 33.5799 2.77457 40.2388 7.76879 45.2331C12.763 50.2273 19.422 53.0018 26.4509 53.0018C32.3699 53.0018 38.104 50.9672 42.9133 47.2677L43.6532 46.7128L44.3931 47.4527L60.8555 63.9151L64 60.7706L47.3526 44.1232L46.6127 43.5683ZM26.4509 48.7475C20.5318 48.7475 14.9827 46.5279 10.9133 42.2735C6.84393 38.0192 4.43931 32.47 4.43931 26.551C4.43931 20.6319 6.65896 15.0828 10.9133 11.0134C15.1676 6.94403 20.5318 4.5394 26.4509 4.5394C32.3699 4.5394 37.9191 6.75906 41.9884 11.0134C46.0578 15.2677 48.4624 20.6319 48.4624 26.551C48.4624 38.7591 38.659 48.7475 26.4509 48.7475Z" fill="#808080"/>
</svg>
