<svg width="21" height="20" viewBox="0 0 21 20" fill="none" xmlns="http://www.w3.org/2000/svg">
<path d="M14.9678 11.9648C14.7332 11.8474 13.6189 11.2609 13.4429 11.1437C13.2083 11.085 13.091 11.0264 12.915 11.2609C12.7391 11.4956 12.2699 11.9648 12.1526 12.1407C12.0353 12.3167 11.8593 12.3167 11.6834 12.1994C11.4487 12.0821 10.7449 11.7888 9.86515 10.9677C9.22 10.3226 8.75078 9.56008 8.63349 9.32549C8.5162 9.09086 8.63349 8.97357 8.75079 8.85628C8.86813 8.73899 8.98542 8.62165 9.10271 8.44571C9.22 8.26978 9.27864 8.21113 9.33729 8.09379C9.39599 7.91785 9.39599 7.80056 9.33729 7.68327C9.27864 7.56593 8.86813 6.45157 8.69214 5.98235C8.5162 5.51314 8.34027 5.57184 8.16428 5.57184C8.04699 5.57184 7.87105 5.51314 7.75371 5.51314C7.57778 5.51314 7.34319 5.57184 7.10856 5.80642C6.87398 6.041 6.28748 6.56886 6.22883 7.68327C6.17013 8.79764 6.99127 9.912 7.04992 10.0879C7.10856 10.2639 8.5162 12.6686 10.8036 13.6657C13.091 14.6627 13.091 14.3695 13.5015 14.3695C13.9121 14.3695 14.8505 13.8416 15.0851 13.3137C15.3197 12.7859 15.3197 12.3167 15.2611 12.258C15.3197 12.1407 15.1437 12.0821 14.9678 11.9648Z" fill="#0046C0"/>
<path d="M10.745 0C5.23177 0 0.774295 4.45748 0.774295 9.97067C0.774295 11.7302 1.2435 13.4898 2.12327 15.0147L0.774295 19.0029C0.715642 19.1202 0.774295 19.2376 0.832946 19.2962C0.891596 19.3548 1.0089 19.4135 1.1262 19.3549L5.05582 18.1818C6.7567 19.3548 8.6922 20 10.745 20C16.2582 20 20.7156 15.5425 20.7156 10.0293C20.7156 4.45748 16.2582 0 10.745 0ZM10.745 18.5337C9.16142 18.5337 7.57784 18.0645 6.22884 17.2434C5.93556 17.0675 5.70098 16.8915 5.40772 16.6569C5.34907 16.5983 5.29042 16.5983 5.23177 16.5983C5.17312 16.5983 5.17312 16.5983 5.11447 16.5983L2.76843 17.3607L3.58954 14.8973C3.64819 14.8387 3.58954 14.7214 3.53089 14.6628C3.35494 14.3695 3.17898 14.0763 3.00303 13.783C2.41652 12.5513 2.06462 11.261 2.06462 9.91203C2.18192 5.21994 5.99426 1.40763 10.745 1.40763C15.4957 1.40763 19.308 5.21994 19.308 9.97067C19.308 14.7214 15.4957 18.5337 10.745 18.5337Z" fill="#0046C0"/>
</svg>
