<svg width="40" height="40" viewBox="0 0 40 40" fill="none" xmlns="http://www.w3.org/2000/svg">
<path fill-rule="evenodd" clip-rule="evenodd" d="M11.6667 5.41666C12.357 5.41666 12.9167 5.9763 12.9167 6.66666V9.44604C17.6296 9.02633 22.3704 9.02633 27.0833 9.44605V6.66666C27.0833 5.9763 27.643 5.41666 28.3333 5.41666C29.0237 5.41666 29.5833 5.9763 29.5833 6.66666V9.69405C32.0717 10.0459 34.0376 12.0141 34.3704 14.5247L34.5147 15.613C35.1214 20.1902 35.069 24.8307 34.3591 29.3931C34.0074 31.6532 32.1713 33.3891 29.895 33.6136L27.9067 33.8096C22.6483 34.3282 17.3516 34.3282 12.0932 33.8096L10.1049 33.6136C7.82863 33.3891 5.99254 31.6532 5.64085 29.3931C4.93092 24.8307 4.87852 20.1902 5.48525 15.613L5.6295 14.5247C5.96229 12.0141 7.92821 10.0458 10.4167 9.69403V6.66666C10.4167 5.9763 10.9763 5.41666 11.6667 5.41666ZM12.4086 12.0047C17.4573 11.5068 22.5426 11.5068 27.5913 12.0047L29.1004 12.1535C30.545 12.2959 31.7013 13.4142 31.8921 14.8532L32.0363 15.9415C32.0867 16.3217 32.1323 16.7023 32.1731 17.0833H7.82677C7.86758 16.7023 7.91317 16.3217 7.96357 15.9415L8.10782 14.8532C8.29857 13.4142 9.45494 12.2959 10.8995 12.1535L12.4086 12.0047ZM7.62805 19.5833C7.46442 22.7301 7.62563 25.8887 8.11112 29.0087C8.28752 30.1423 9.20849 31.013 10.3502 31.1256L12.3386 31.3217C17.4338 31.8242 22.5661 31.8242 27.6613 31.3217L29.6497 31.1256C30.7914 31.013 31.7124 30.1423 31.8888 29.0087C32.3743 25.8887 32.5355 22.7301 32.3719 19.5833H7.62805Z" fill="white" stroke="white" stroke-linecap="round"/>
</svg>
