<svg width="40" height="40" viewBox="0 0 40 40" fill="none" xmlns="http://www.w3.org/2000/svg">
<path fill-rule="evenodd" clip-rule="evenodd" d="M18.75 6.30605C11.7419 6.93759 6.25 12.8274 6.25 20C6.25 27.5939 12.4061 33.75 20 33.75C23.869 33.75 27.3642 32.1532 29.8641 29.5793L19.2143 20.9722C18.9206 20.7349 18.75 20.3776 18.75 20V6.30605ZM21.25 6.30605V18.75H33.6939C33.0995 12.1536 27.8464 6.90049 21.25 6.30605ZM33.694 21.25H23.5353L31.4368 27.6359C32.6804 25.7773 33.4825 23.5995 33.694 21.25ZM3.75 20C3.75 11.0254 11.0254 3.75 20 3.75C28.9746 3.75 36.25 11.0254 36.25 20C36.25 23.8687 34.8965 27.4246 32.6384 30.2152C29.6613 33.8942 25.1053 36.25 20 36.25C11.0254 36.25 3.75 28.9746 3.75 20Z" fill="white" stroke="white" stroke-linejoin="round"/>
</svg>
