<svg xmlns="http://www.w3.org/2000/svg" data-name="Layer 118" viewBox="0 0 49.48 49.48" id="project"><rect width="47.48" height="47.48" x="1" y="1" fill="none" stroke="#231f20" stroke-miterlimit="10" stroke-width="2" rx="23.74"></rect><rect width="4.82" height="3.24" x="11.66" y="17.06" fill="none" stroke="#231f20" stroke-linecap="round" stroke-linejoin="round" stroke-width="2" rx="1.1"></rect><path fill="none" stroke="#231f20" stroke-linecap="round" stroke-linejoin="round" stroke-width="2" d="M11.66 23.57v11.92a1.09 1.09 0 0 0 .32.76l1.49 1.49a.85.85 0 0 0 1.2 0l1.49-1.49a1.05 1.05 0 0 0 .32-.76V23.57a1.08 1.08 0 0 0-1.08-1.08h-2.66a1.08 1.08 0 0 0-1.08 1.08zm26.35-7.59V36.5a1.53 1.53 0 0 1-1.55 1.49H21.71a1.52 1.52 0 0 1-1.54-1.49V13.12a1.51 1.51 0 0 1 1.54-1.48H33.5a.26.26 0 0 1 .18.07l2.12 2.05 2.13 2a.25.25 0 0 1 .08.22z"></path><path fill="none" stroke="#231f20" stroke-linecap="round" stroke-linejoin="round" stroke-width="2" d="M33.5 11.64v3.64a.65.65 0 0 0 .62.68h3.89"></path></svg>